<?xml version="1.0" standalone="no"?>
<!DOCTYPE svg PUBLIC "-//W3C//DTD SVG 20010904//EN"
 "http://www.w3.org/TR/2001/REC-SVG-20010904/DTD/svg10.dtd">
<svg version="1.0" xmlns="http://www.w3.org/2000/svg"
 width="512.000000pt" height="512.000000pt" viewBox="0 0 512.000000 512.000000"
 preserveAspectRatio="xMidYMid meet">

<g transform="translate(0.000000,512.000000) scale(0.100000,-0.100000)"
fill="#000000" stroke="none">
<path d="M3220 2630 l0 -500 95 0 95 0 0 108 0 108 33 32 33 32 90 -140 89
-140 108 0 c60 0 107 4 105 8 -1 4 -63 96 -135 204 l-133 197 107 123 c58 68
115 133 126 146 l20 22 -115 0 -115 0 -106 -126 -107 -125 0 275 0 276 -95 0
-95 0 0 -500z"/>
<path d="M240 2605 l0 -477 248 4 248 3 67 33 c82 41 121 89 138 170 25 124
-23 234 -121 270 -20 7 -19 9 17 32 59 39 88 100 87 185 0 83 -24 137 -81 184
-70 58 -104 64 -365 69 l-238 4 0 -477z m437 302 c59 -31 70 -138 19 -186 -32
-30 -78 -41 -173 -41 l-83 0 0 126 0 126 103 -4 c70 -3 112 -9 134 -21z m25
-391 c53 -35 63 -143 17 -192 -31 -33 -78 -44 -186 -44 l-93 0 0 131 0 131
118 -4 c92 -3 123 -7 144 -22z"/>
<path d="M1810 2605 l0 -475 100 0 100 0 0 200 0 200 190 0 190 0 0 75 0 75
-190 0 -190 0 0 125 0 125 210 0 210 0 0 75 0 75 -310 0 -310 0 0 -475z"/>
<path d="M1268 2831 c-140 -56 -209 -172 -210 -351 0 -163 54 -260 178 -321
118 -58 265 -51 376 20 73 46 75 58 21 120 l-45 51 -34 -29 c-58 -52 -139 -64
-210 -32 -44 20 -78 60 -89 104 l-7 27 227 0 228 0 -6 88 c-12 164 -57 252
-158 307 -71 38 -197 46 -271 16z m194 -157 c24 -22 48 -74 48 -104 0 -19 -6
-20 -130 -20 l-130 0 6 28 c20 82 72 126 142 119 24 -3 52 -13 64 -23z"/>
<path d="M2685 2837 c-109 -36 -185 -113 -185 -188 0 -17 8 -19 93 -19 l93 0
10 29 c21 53 128 66 169 21 10 -11 20 -42 23 -69 l4 -48 -108 -5 c-129 -6
-195 -29 -248 -89 -88 -96 -62 -249 52 -316 42 -25 57 -28 134 -28 81 0 89 2
131 31 l44 31 10 -28 11 -29 96 0 c53 0 96 2 96 4 0 3 -5 17 -12 33 -7 17 -14
122 -17 274 l-6 246 -30 48 c-21 33 -47 57 -85 79 -48 27 -65 31 -145 33 -55
2 -105 -2 -130 -10z m205 -447 c0 -68 -18 -93 -82 -112 -48 -14 -95 -1 -121
33 -17 24 -18 31 -7 63 17 51 64 74 158 75 l52 1 0 -60z"/>
<path d="M4108 2831 c-140 -56 -209 -172 -210 -351 0 -163 54 -260 178 -321
118 -58 265 -51 376 20 73 46 75 58 21 120 l-45 51 -34 -29 c-58 -52 -139 -64
-210 -32 -44 20 -78 60 -89 104 l-7 27 227 0 228 0 -6 88 c-12 164 -57 252
-158 307 -71 38 -197 46 -271 16z m194 -157 c24 -22 48 -74 48 -104 0 -19 -6
-20 -130 -20 l-130 0 6 28 c20 82 72 126 142 119 24 -3 52 -13 64 -23z"/>
<path d="M4701 2306 c-13 -7 -30 -24 -37 -37 -57 -103 79 -200 168 -120 27 24
33 36 33 71 0 35 -6 47 -33 71 -36 32 -89 38 -131 15z"/>
</g>
</svg>
