<?xml version="1.0" standalone="no"?>
<!DOCTYPE svg PUBLIC "-//W3C//DTD SVG 20010904//EN"
 "http://www.w3.org/TR/2001/REC-SVG-20010904/DTD/svg10.dtd">
<svg version="1.0" xmlns="http://www.w3.org/2000/svg"
 width="64.000000pt" height="64.000000pt" viewBox="0 0 64.000000 64.000000"
 preserveAspectRatio="xMidYMid meet">

<g transform="translate(0.000000,64.000000) scale(0.100000,-0.100000)"
fill="#000000" stroke="none">
<path d="M0 320 l0 -320 320 0 320 0 0 320 0 320 -320 0 -320 0 0 -320z m110
50 c3 -6 6 -29 6 -53 l-1 -42 -42 -3 -43 -3 0 54 c0 29 3 57 7 61 10 10 65 -1
73 -14z m190 10 c0 -5 -12 -10 -26 -10 -19 0 -25 -4 -22 -17 2 -10 11 -17 20
-15 9 1 19 -2 23 -8 4 -6 -4 -10 -19 -10 -21 0 -26 -5 -26 -25 0 -14 -4 -25
-10 -25 -6 0 -10 27 -10 60 l0 60 35 0 c19 0 35 -4 35 -10z m130 -21 c0 -27 2
-30 15 -19 19 16 32 5 17 -13 -9 -10 -8 -19 4 -35 13 -20 13 -22 0 -22 -8 0
-20 8 -25 18 -10 16 -10 16 -11 0 0 -10 -7 -18 -15 -18 -12 0 -15 13 -15 60 0
47 3 60 15 60 10 0 15 -10 15 -31z m-239 -9 c29 -16 25 -50 -7 -50 -15 0 -23
-4 -19 -10 4 -6 15 -8 26 -5 10 4 19 2 19 -3 0 -17 -38 -20 -59 -5 -25 17 -27
46 -5 67 18 19 20 19 45 6z m183 -6 c9 -8 16 -29 16 -45 0 -29 -2 -30 -37 -27
-46 4 -59 34 -19 44 35 8 33 26 -1 19 -27 -6 -27 -6 -9 9 25 20 31 20 50 0z
m180 0 c26 -26 20 -44 -16 -44 -23 0 -29 -3 -19 -9 8 -5 20 -7 28 -4 7 3 13 0
13 -7 0 -7 -13 -10 -32 -8 -28 3 -33 7 -36 33 -3 19 2 33 14 42 23 17 29 16
48 -3z m56 -64 c0 -5 -7 -10 -15 -10 -8 0 -15 5 -15 10 0 6 7 10 15 10 8 0 15
-4 15 -10z"/>
<path d="M54 359 c-3 -6 -2 -15 2 -19 12 -12 38 5 30 19 -9 14 -23 14 -32 0z"/>
<path d="M55 310 c-3 -5 -4 -14 0 -20 8 -13 35 -1 35 16 0 16 -26 19 -35 4z"/>
<path d="M165 330 c-3 -5 1 -10 10 -10 9 0 13 5 10 10 -3 6 -8 10 -10 10 -2 0
-7 -4 -10 -10z"/>
<path d="M341 301 c-8 -6 -9 -11 -3 -15 6 -3 14 -1 17 5 9 14 2 20 -14 10z"/>
<path d="M515 330 c-3 -5 1 -10 9 -10 9 0 16 5 16 10 0 6 -4 10 -9 10 -6 0
-13 -4 -16 -10z"/>
</g>
</svg>
