<?xml version="1.0" standalone="no"?>
<!DOCTYPE svg PUBLIC "-//W3C//DTD SVG 20010904//EN"
 "http://www.w3.org/TR/2001/REC-SVG-20010904/DTD/svg10.dtd">
<svg version="1.0" xmlns="http://www.w3.org/2000/svg"
 width="512.000000pt" height="512.000000pt" viewBox="0 0 512.000000 512.000000"
 preserveAspectRatio="xMidYMid meet">

<g transform="translate(0.000000,512.000000) scale(0.100000,-0.100000)"
fill="#000000" stroke="none">
<path d="M0 2560 l0 -2560 2560 0 2560 0 0 2560 0 2560 -2560 0 -2560 0 0
-2560z m3410 294 l0 -275 107 125 106 126 115 0 c109 0 114 -1 100 -17 -8 -10
-65 -76 -126 -146 l-112 -128 133 -197 c72 -108 134 -200 135 -204 2 -5 -45
-8 -105 -8 l-108 0 -89 140 -90 140 -33 -32 -33 -32 0 -108 0 -108 -95 0 -95
0 0 500 0 500 95 0 95 0 0 -276z m-2649 203 c107 -41 162 -119 163 -232 1 -85
-28 -146 -87 -185 -36 -23 -37 -25 -17 -32 98 -36 146 -146 121 -270 -17 -81
-56 -129 -138 -170 l-67 -33 -248 -3 -248 -4 0 477 0 477 238 -4 c192 -4 246
-8 283 -21z m1669 -52 l0 -75 -210 0 -210 0 0 -125 0 -125 190 0 190 0 0 -75
0 -75 -190 0 -190 0 0 -200 0 -200 -100 0 -100 0 0 475 0 475 310 0 310 0 0
-75z m-891 -190 c101 -55 146 -143 158 -307 l6 -88 -228 0 -227 0 7 -27 c11
-44 45 -84 89 -104 71 -32 152 -20 210 32 l34 29 46 -51 c54 -60 52 -73 -22
-120 -156 -99 -385 -69 -486 64 -109 143 -87 414 42 527 68 60 130 81 232 77
72 -2 93 -8 139 -32z m1421 -1 c38 -22 64 -46 85 -79 l30 -48 6 -246 c3 -152
10 -257 17 -274 7 -16 12 -30 12 -33 0 -2 -43 -4 -96 -4 l-96 0 -11 29 -11 30
-28 -24 c-40 -33 -101 -48 -175 -42 -187 15 -277 214 -157 346 53 60 119 83
248 89 l108 5 -4 48 c-3 27 -13 58 -23 69 -41 45 -148 32 -169 -21 l-10 -29
-93 0 c-85 0 -93 2 -93 19 0 34 20 75 53 109 64 67 140 93 262 89 80 -2 97 -6
145 -33z m1419 1 c101 -55 146 -143 158 -307 l6 -88 -228 0 -227 0 7 -27 c11
-44 45 -84 89 -104 71 -32 152 -20 210 32 l34 29 46 -51 c54 -60 52 -73 -22
-120 -139 -88 -334 -75 -455 30 -103 91 -133 305 -62 458 58 128 155 186 305
180 72 -2 94 -8 139 -32z m453 -524 c27 -24 33 -36 33 -71 0 -83 -95 -127
-172 -80 -38 23 -52 74 -33 121 27 63 117 79 172 30z"/>
<path d="M440 2806 l0 -126 83 0 c45 0 97 4 116 10 73 21 105 84 82 161 -17
57 -53 72 -178 77 l-103 4 0 -126z"/>
<path d="M440 2411 l0 -131 100 0 c147 0 198 28 207 113 6 51 -15 104 -49 127
-16 10 -60 16 -140 18 l-118 4 0 -131z"/>
<path d="M1330 2683 c-35 -19 -63 -58 -74 -105 l-6 -28 130 0 c124 0 130 1
130 20 0 30 -24 82 -48 103 -30 27 -90 32 -132 10z"/>
<path d="M2759 2441 c-49 -15 -67 -31 -79 -67 -11 -32 -10 -39 7 -63 26 -34
73 -47 121 -33 64 19 82 44 82 112 l0 60 -52 -1 c-29 0 -65 -4 -79 -8z"/>
<path d="M4163 2681 c-33 -21 -55 -55 -67 -103 l-6 -28 130 0 c124 0 130 1
130 20 0 30 -24 82 -48 104 -32 28 -100 31 -139 7z"/>
</g>
</svg>
